# MagicaVoxel @ Ephtracy

# group
g chicken

# material
mtllib chicken.mtl
usemtl palette

# normals
vn -1 0 0
vn 1 0 0
vn 0 0 1
vn 0 0 -1
vn 0 -1 0
vn 0 1 0

# texcoords
vt 0.0878906 0.5
vt 0.853516 0.5
vt 0.958984 0.5

# verts
v -2 2 1
v -2 2 -0
v -2 3 1
v -2 3 -0
v -1 2 2
v -1 2 1
v -1 2 -0
v -1 2 -1
v -1 3 1
v -1 3 -0
v -1 4 2
v -1 4 -1
v 0 0 2
v 0 0 1
v 0 0 -0
v 0 0 -1
v 0 1 1
v 0 1 -0
v 0 2 3
v 0 2 2
v 0 2 1
v 0 2 -0
v 0 2 -1
v 0 2 -2
v 0 3 3
v 0 3 2
v 0 3 -1
v 0 3 -2
v 0 4 2
v 0 4 -1
v 0 5 1
v 0 5 -0
v 0 6 2
v 0 6 1
v 0 6 -0
v 0 6 -1
v 1 6 1
v 1 6 -0
v 1 7 1
v 1 7 -0
v 1 1 2
v 1 1 1
v 1 1 -0
v 1 1 -1
v 1 2 2
v 1 2 1
v 1 2 -0
v 1 2 -1
v 2 0 2
v 2 0 1
v 2 0 -0
v 2 0 -1
v 2 1 2
v 2 1 1
v 2 1 -0
v 2 1 -1
v 2 2 3
v 2 2 -2
v 2 3 3
v 2 3 2
v 2 3 1
v 2 3 -0
v 2 3 -1
v 2 3 -2
v 2 4 1
v 2 4 -0
v 2 5 1
v 2 5 -0
v 2 6 2
v 2 6 1
v 2 6 -0
v 2 6 -1
v 2 7 1
v 2 7 -0
v 3 4 1
v 3 4 -0
v 3 5 1
v 3 5 -0
v 0 2 3
v 0 3 3
v 2 2 3
v 2 3 3
v -1 2 2
v -1 4 2
v 0 0 2
v 0 2 2
v 0 3 2
v 0 4 2
v 0 6 2
v 1 1 2
v 1 2 2
v 2 0 2
v 2 1 2
v 2 3 2
v 2 6 2
v -2 2 1
v -2 3 1
v -1 2 1
v -1 3 1
v 1 6 1
v 1 7 1
v 2 4 1
v 2 5 1
v 2 6 1
v 2 7 1
v 3 4 1
v 3 5 1
v 0 0 -0
v 0 1 -0
v 1 1 -0
v 2 0 -0
v 2 1 -0
v 0 0 1
v 0 1 1
v 1 1 1
v 2 0 1
v 2 1 1
v -2 2 -0
v -2 3 -0
v -1 2 -0
v -1 3 -0
v 1 6 -0
v 1 7 -0
v 2 4 -0
v 2 5 -0
v 2 6 -0
v 2 7 -0
v 3 4 -0
v 3 5 -0
v -1 2 -1
v -1 4 -1
v 0 0 -1
v 0 2 -1
v 0 3 -1
v 0 4 -1
v 0 6 -1
v 1 1 -1
v 1 2 -1
v 2 0 -1
v 2 1 -1
v 2 3 -1
v 2 6 -1
v 0 2 -2
v 0 3 -2
v 2 2 -2
v 2 3 -2
v 0 0 2
v 2 0 2
v 0 0 1
v 2 0 1
v 0 0 -0
v 2 0 -0
v 0 0 -1
v 2 0 -1
v 0 1 1
v 1 1 1
v 0 1 -0
v 1 1 -0
v 0 2 3
v 2 2 3
v -1 2 2
v 0 2 2
v 1 2 2
v -2 2 1
v -1 2 1
v 0 2 1
v 1 2 1
v -2 2 -0
v -1 2 -0
v 0 2 -0
v 1 2 -0
v -1 2 -1
v 0 2 -1
v 1 2 -1
v 0 2 -2
v 2 2 -2
v 2 4 1
v 3 4 1
v 2 4 -0
v 3 4 -0
v 1 1 2
v 2 1 2
v 1 1 1
v 2 1 1
v 1 1 -0
v 2 1 -0
v 1 1 -1
v 2 1 -1
v 0 3 3
v 2 3 3
v 0 3 2
v 2 3 2
v -2 3 1
v -1 3 1
v -2 3 -0
v -1 3 -0
v 0 3 -1
v 2 3 -1
v 0 3 -2
v 2 3 -2
v -1 4 2
v 0 4 2
v -1 4 -1
v 0 4 -1
v 2 5 1
v 3 5 1
v 2 5 -0
v 3 5 -0
v 0 6 2
v 2 6 2
v 0 6 1
v 1 6 1
v 2 6 1
v 0 6 -0
v 1 6 -0
v 2 6 -0
v 0 6 -1
v 2 6 -1
v 1 7 1
v 2 7 1
v 1 7 -0
v 2 7 -0

# faces
f 3/3/1 2/3/1 1/3/1
f 4/3/1 2/3/1 3/3/1
f 9/3/1 6/3/1 5/3/1
f 10/3/1 8/3/1 7/3/1
f 11/3/1 9/3/1 5/3/1
f 11/3/1 10/3/1 9/3/1
f 12/3/1 8/3/1 10/3/1
f 12/3/1 10/3/1 11/3/1
f 17/1/1 14/1/1 13/1/1
f 18/1/1 16/1/1 15/1/1
f 20/1/1 17/1/1 13/1/1
f 21/3/1 18/3/1 17/3/1
f 21/1/1 17/1/1 20/1/1
f 22/1/1 16/1/1 18/1/1
f 22/3/1 18/3/1 21/3/1
f 23/1/1 16/1/1 22/1/1
f 25/3/1 20/3/1 19/3/1
f 26/3/1 20/3/1 25/3/1
f 27/3/1 24/3/1 23/3/1
f 28/3/1 24/3/1 27/3/1
f 31/3/1 30/3/1 29/3/1
f 32/3/1 30/3/1 31/3/1
f 33/3/1 31/3/1 29/3/1
f 34/2/1 32/2/1 31/2/1
f 34/3/1 31/3/1 33/3/1
f 35/3/1 30/3/1 32/3/1
f 35/2/1 32/2/1 34/2/1
f 36/3/1 30/3/1 35/3/1
f 39/2/1 38/2/1 37/2/1
f 40/2/1 38/2/1 39/2/1
f 41/1/2 42/1/2 45/1/2
f 42/3/2 43/3/2 46/3/2
f 45/1/2 42/1/2 46/1/2
f 43/1/2 44/1/2 47/1/2
f 46/3/2 43/3/2 47/3/2
f 47/1/2 44/1/2 48/1/2
f 49/1/2 50/1/2 53/1/2
f 53/1/2 50/1/2 54/1/2
f 51/1/2 52/1/2 55/1/2
f 55/1/2 52/1/2 56/1/2
f 57/3/2 58/3/2 59/3/2
f 59/3/2 58/3/2 60/3/2
f 60/3/2 58/3/2 61/3/2
f 61/3/2 58/3/2 62/3/2
f 62/3/2 58/3/2 63/3/2
f 63/3/2 58/3/2 64/3/2
f 60/3/2 61/3/2 65/3/2
f 61/2/2 62/2/2 65/2/2
f 62/3/2 63/3/2 66/3/2
f 65/2/2 62/2/2 66/2/2
f 60/3/2 65/3/2 67/3/2
f 66/3/2 63/3/2 68/3/2
f 60/3/2 67/3/2 69/3/2
f 67/3/2 68/3/2 69/3/2
f 69/3/2 68/3/2 70/3/2
f 68/3/2 63/3/2 71/3/2
f 70/3/2 68/3/2 71/3/2
f 71/3/2 63/3/2 72/3/2
f 70/2/2 71/2/2 73/2/2
f 73/2/2 71/2/2 74/2/2
f 75/1/2 76/1/2 77/1/2
f 77/1/2 76/1/2 78/1/2
f 81/3/3 80/3/3 79/3/3
f 82/3/3 80/3/3 81/3/3
f 86/3/3 84/3/3 83/3/3
f 87/3/3 84/3/3 86/3/3
f 88/3/3 84/3/3 87/3/3
f 90/1/3 86/1/3 85/1/3
f 91/1/3 86/1/3 90/1/3
f 92/1/3 90/1/3 85/1/3
f 93/1/3 90/1/3 92/1/3
f 94/3/3 89/3/3 88/3/3
f 94/3/3 88/3/3 87/3/3
f 95/3/3 89/3/3 94/3/3
f 98/3/3 97/3/3 96/3/3
f 99/3/3 97/3/3 98/3/3
f 104/2/3 101/2/3 100/2/3
f 105/2/3 101/2/3 104/2/3
f 106/1/3 103/1/3 102/1/3
f 107/1/3 103/1/3 106/1/3
f 110/1/3 109/1/3 108/1/3
f 111/1/3 110/1/3 108/1/3
f 112/1/3 110/1/3 111/1/3
f 113/1/4 114/1/4 115/1/4
f 113/1/4 115/1/4 116/1/4
f 116/1/4 115/1/4 117/1/4
f 118/3/4 119/3/4 120/3/4
f 120/3/4 119/3/4 121/3/4
f 122/2/4 123/2/4 126/2/4
f 126/2/4 123/2/4 127/2/4
f 124/1/4 125/1/4 128/1/4
f 128/1/4 125/1/4 129/1/4
f 130/3/4 131/3/4 133/3/4
f 133/3/4 131/3/4 134/3/4
f 134/3/4 131/3/4 135/3/4
f 132/1/4 133/1/4 137/1/4
f 137/1/4 133/1/4 138/1/4
f 132/1/4 137/1/4 139/1/4
f 139/1/4 137/1/4 140/1/4
f 135/3/4 136/3/4 141/3/4
f 134/3/4 135/3/4 141/3/4
f 141/3/4 136/3/4 142/3/4
f 143/3/4 144/3/4 145/3/4
f 145/3/4 144/3/4 146/3/4
f 149/1/5 148/1/5 147/1/5
f 150/1/5 148/1/5 149/1/5
f 153/1/5 152/1/5 151/1/5
f 154/1/5 152/1/5 153/1/5
f 157/3/5 156/3/5 155/3/5
f 158/3/5 156/3/5 157/3/5
f 162/3/5 160/3/5 159/3/5
f 163/3/5 160/3/5 162/3/5
f 165/3/5 162/3/5 161/3/5
f 166/3/5 162/3/5 165/3/5
f 167/3/5 160/3/5 163/3/5
f 168/3/5 166/3/5 165/3/5
f 168/3/5 165/3/5 164/3/5
f 169/3/5 166/3/5 168/3/5
f 170/3/5 166/3/5 169/3/5
f 171/3/5 160/3/5 167/3/5
f 172/3/5 170/3/5 169/3/5
f 173/3/5 170/3/5 172/3/5
f 174/3/5 160/3/5 171/3/5
f 175/3/5 174/3/5 173/3/5
f 176/3/5 160/3/5 174/3/5
f 176/3/5 174/3/5 175/3/5
f 179/1/5 178/1/5 177/1/5
f 180/1/5 178/1/5 179/1/5
f 181/1/6 182/1/6 183/1/6
f 183/1/6 182/1/6 184/1/6
f 185/1/6 186/1/6 187/1/6
f 187/1/6 186/1/6 188/1/6
f 189/3/6 190/3/6 191/3/6
f 191/3/6 190/3/6 192/3/6
f 193/3/6 194/3/6 195/3/6
f 195/3/6 194/3/6 196/3/6
f 197/3/6 198/3/6 199/3/6
f 199/3/6 198/3/6 200/3/6
f 201/3/6 202/3/6 203/3/6
f 203/3/6 202/3/6 204/3/6
f 205/1/6 206/1/6 207/1/6
f 207/1/6 206/1/6 208/1/6
f 209/3/6 210/3/6 211/3/6
f 211/3/6 210/3/6 212/3/6
f 212/3/6 210/3/6 213/3/6
f 211/2/6 212/2/6 214/2/6
f 214/2/6 212/2/6 215/2/6
f 214/3/6 215/3/6 217/3/6
f 215/3/6 216/3/6 217/3/6
f 217/3/6 216/3/6 218/3/6
f 219/2/6 220/2/6 221/2/6
f 221/2/6 220/2/6 222/2/6
