# MagicaVoxel @ Ephtracy

# group
g Road Cone

# material
mtllib Road Cone.mtl
usemtl palette

# normals
vn -1 0 0
vn 1 0 0
vn 0 0 1
vn 0 0 -1
vn 0 -1 0
vn 0 1 0

# texcoords
vt 0.0683594 0.5
vt 0.958984 0.5

# verts
v -3 0 3
v -3 0 -4
v -3 1 3
v -3 1 -4
v -2 1 2
v -2 1 -3
v -2 2 2
v -2 2 -3
v -2 3 2
v -2 3 -3
v -1 3 1
v -1 3 -2
v -1 4 1
v -1 4 -2
v -1 5 1
v -1 5 -2
v 0 5 -0
v 0 5 -1
v 0 7 -0
v 0 7 -1
v 1 5 -0
v 1 5 -1
v 1 7 -0
v 1 7 -1
v 2 3 1
v 2 3 -2
v 2 4 1
v 2 4 -2
v 2 5 1
v 2 5 -2
v 3 1 2
v 3 1 -3
v 3 2 2
v 3 2 -3
v 3 3 2
v 3 3 -3
v 4 0 3
v 4 0 -4
v 4 1 3
v 4 1 -4
v -3 0 3
v -3 1 3
v 4 0 3
v 4 1 3
v -2 1 2
v -2 2 2
v -2 3 2
v 3 1 2
v 3 2 2
v 3 3 2
v -1 3 1
v -1 4 1
v -1 5 1
v 2 3 1
v 2 4 1
v 2 5 1
v 0 5 -0
v 0 7 -0
v 1 5 -0
v 1 7 -0
v 0 5 -1
v 0 7 -1
v 1 5 -1
v 1 7 -1
v -1 3 -2
v -1 4 -2
v -1 5 -2
v 2 3 -2
v 2 4 -2
v 2 5 -2
v -2 1 -3
v -2 2 -3
v -2 3 -3
v 3 1 -3
v 3 2 -3
v 3 3 -3
v -3 0 -4
v -3 1 -4
v 4 0 -4
v 4 1 -4
v -3 0 3
v 4 0 3
v -3 0 -4
v 4 0 -4
v -3 1 3
v 4 1 3
v -2 1 2
v 3 1 2
v -2 1 -3
v 3 1 -3
v -3 1 -4
v 4 1 -4
v -2 3 2
v 3 3 2
v -1 3 1
v 2 3 1
v -1 3 -2
v 2 3 -2
v -2 3 -3
v 3 3 -3
v -1 5 1
v 2 5 1
v 0 5 -0
v 1 5 -0
v 0 5 -1
v 1 5 -1
v -1 5 -2
v 2 5 -2
v 0 7 -0
v 1 7 -0
v 0 7 -1
v 1 7 -1

# faces
f 3/1/1 2/1/1 1/1/1
f 4/1/1 2/1/1 3/1/1
f 7/1/1 6/1/1 5/1/1
f 8/1/1 6/1/1 7/1/1
f 9/2/1 8/2/1 7/2/1
f 10/2/1 8/2/1 9/2/1
f 13/1/1 12/1/1 11/1/1
f 14/1/1 12/1/1 13/1/1
f 15/2/1 14/2/1 13/2/1
f 16/2/1 14/2/1 15/2/1
f 19/1/1 18/1/1 17/1/1
f 20/1/1 18/1/1 19/1/1
f 21/1/2 22/1/2 23/1/2
f 23/1/2 22/1/2 24/1/2
f 25/1/2 26/1/2 27/1/2
f 27/1/2 26/1/2 28/1/2
f 27/2/2 28/2/2 29/2/2
f 29/2/2 28/2/2 30/2/2
f 31/1/2 32/1/2 33/1/2
f 33/1/2 32/1/2 34/1/2
f 33/2/2 34/2/2 35/2/2
f 35/2/2 34/2/2 36/2/2
f 37/1/2 38/1/2 39/1/2
f 39/1/2 38/1/2 40/1/2
f 43/1/3 42/1/3 41/1/3
f 44/1/3 42/1/3 43/1/3
f 48/1/3 46/1/3 45/1/3
f 49/2/3 47/2/3 46/2/3
f 49/1/3 46/1/3 48/1/3
f 50/2/3 47/2/3 49/2/3
f 54/1/3 52/1/3 51/1/3
f 55/2/3 53/2/3 52/2/3
f 55/1/3 52/1/3 54/1/3
f 56/2/3 53/2/3 55/2/3
f 59/1/3 58/1/3 57/1/3
f 60/1/3 58/1/3 59/1/3
f 61/1/4 62/1/4 63/1/4
f 63/1/4 62/1/4 64/1/4
f 65/1/4 66/1/4 68/1/4
f 66/2/4 67/2/4 69/2/4
f 68/1/4 66/1/4 69/1/4
f 69/2/4 67/2/4 70/2/4
f 71/1/4 72/1/4 74/1/4
f 72/2/4 73/2/4 75/2/4
f 74/1/4 72/1/4 75/1/4
f 75/2/4 73/2/4 76/2/4
f 77/1/4 78/1/4 79/1/4
f 79/1/4 78/1/4 80/1/4
f 83/1/5 82/1/5 81/1/5
f 84/1/5 82/1/5 83/1/5
f 85/1/6 86/1/6 87/1/6
f 87/1/6 86/1/6 88/1/6
f 85/1/6 87/1/6 89/1/6
f 88/1/6 86/1/6 90/1/6
f 85/1/6 89/1/6 91/1/6
f 89/1/6 90/1/6 91/1/6
f 90/1/6 86/1/6 92/1/6
f 91/1/6 90/1/6 92/1/6
f 93/2/6 94/2/6 95/2/6
f 95/2/6 94/2/6 96/2/6
f 93/2/6 95/2/6 97/2/6
f 96/2/6 94/2/6 98/2/6
f 93/2/6 97/2/6 99/2/6
f 97/2/6 98/2/6 99/2/6
f 98/2/6 94/2/6 100/2/6
f 99/2/6 98/2/6 100/2/6
f 101/2/6 102/2/6 103/2/6
f 103/2/6 102/2/6 104/2/6
f 101/2/6 103/2/6 105/2/6
f 104/2/6 102/2/6 106/2/6
f 101/2/6 105/2/6 107/2/6
f 105/2/6 106/2/6 107/2/6
f 106/2/6 102/2/6 108/2/6
f 107/2/6 106/2/6 108/2/6
f 109/1/6 110/1/6 111/1/6
f 111/1/6 110/1/6 112/1/6
