# MagicaVoxel @ Ephtracy

# group
g Tree 1

# material
mtllib Tree 1.mtl
usemtl palette

# normals
vn -1 0 0
vn 1 0 0
vn 0 0 1
vn 0 0 -1
vn 0 -1 0
vn 0 1 0

# texcoords
vt 0.537109 0.5
vt 0.888672 0.5

# verts
v -25 26 -0
v -25 26 -6
v -25 27 5
v -25 27 -0
v -25 30 8
v -25 30 5
v -25 32 -1
v -25 32 -6
v -25 33 2
v -25 33 -1
v -25 34 2
v -25 34 -3
v -25 36 8
v -25 36 3
v -25 40 3
v -25 40 -3
v -21 23 13
v -21 23 6
v -21 30 13
v -21 30 8
v -21 30 6
v -19 27 6
v -19 27 5
v -19 27 -6
v -19 27 -8
v -19 30 10
v -19 30 8
v -19 30 6
v -19 30 5
v -19 32 -1
v -19 32 -6
v -19 33 2
v -19 33 -1
v -19 34 2
v -19 34 -3
v -19 36 8
v -19 36 3
v -19 37 -3
v -19 37 -8
v -19 39 10
v -19 39 4
v -19 40 3
v -19 40 -2
v -19 45 4
v -19 45 -2
v -18 20 3
v -18 20 -3
v -18 26 3
v -18 26 -3
v -16 21 -3
v -16 21 -9
v -16 26 -3
v -16 27 -3
v -16 27 -8
v -16 27 -9
v -14 25 14
v -14 25 13
v -14 30 13
v -14 30 10
v -14 32 14
v -14 32 10
v -13 37 -2
v -13 37 -8
v -13 45 -2
v -13 45 -8
v -12 1 3
v -12 1 -2
v -12 20 3
v -12 20 -2
v -12 26 3
v -12 26 -2
v -12 26 -3
v -12 27 3
v -12 27 -2
v -12 27 -3
v -9 24 -8
v -9 24 -14
v -9 30 -8
v -9 30 -14
v -7 19 -2
v -7 19 -3
v -7 21 -2
v -7 21 -3
v -7 26 15
v -7 26 14
v -7 32 14
v -7 32 10
v -7 33 15
v -7 33 10
v -5 30 -8
v -5 30 -14
v -5 33 -8
v -5 33 -14
v -1 24 5
v -1 24 3
v -1 25 12
v -1 25 6
v -1 25 3
v -1 25 -1
v -1 26 12
v -1 26 10
v -1 26 -1
v -1 26 -7
v -1 27 10
v -1 27 6
v -1 27 5
v -1 27 -7
v -19 26 -0
v -19 26 -6
v -19 27 -0
v -19 27 -6
v -19 37 -2
v -19 37 -3
v -19 40 -2
v -19 40 -3
v -14 23 13
v -14 23 6
v -14 25 13
v -14 25 7
v -14 27 7
v -14 27 6
v -13 39 4
v -13 39 3
v -13 45 4
v -13 45 3
v -12 20 -2
v -12 20 -3
v -12 21 -2
v -12 21 -3
v -10 21 -8
v -10 21 -9
v -10 27 -8
v -10 27 -9
v -7 1 3
v -7 1 -2
v -7 19 3
v -7 19 -2
v -7 25 14
v -7 25 7
v -7 25 3
v -7 25 -2
v -7 26 14
v -7 26 10
v -7 27 10
v -7 27 7
v -7 27 3
v -7 27 -2
v -7 39 3
v -7 39 -2
v -7 45 3
v -7 45 -2
v -6 21 -3
v -6 21 -8
v -6 24 -8
v -6 25 -2
v -6 25 -3
v -6 27 -2
v -6 27 -8
v -6 41 -2
v -6 41 -8
v -6 45 -2
v -6 45 -8
v -3 24 -8
v -3 24 -14
v -3 27 -8
v -3 27 -14
v -1 19 3
v -1 19 -3
v -1 24 3
v -1 24 -1
v -1 25 -1
v -1 25 -3
v -1 27 -7
v -1 27 -8
v -1 30 1
v -1 30 -1
v -1 31 10
v -1 31 7
v -1 32 -1
v -1 32 -7
v -1 33 10
v -1 33 7
v -1 33 1
v -1 33 -8
v -1 39 10
v -1 39 -2
v -1 41 -2
v -1 41 -8
v 0 26 15
v 0 26 12
v 0 31 12
v 0 31 10
v 0 33 15
v 0 33 10
v 1 27 -8
v 1 27 -14
v 1 33 -8
v 1 33 -14
v 5 24 5
v 5 24 -1
v 5 25 12
v 5 25 6
v 5 26 -1
v 5 26 -7
v 5 27 6
v 5 27 5
v 5 30 1
v 5 30 -1
v 5 31 12
v 5 31 7
v 5 32 -1
v 5 32 -7
v 5 33 7
v 5 33 1
v -7 26 15
v -7 33 15
v 0 26 15
v 0 33 15
v -14 25 14
v -14 32 14
v -7 25 14
v -7 26 14
v -7 32 14
v -21 23 13
v -21 30 13
v -14 23 13
v -14 25 13
v -14 30 13
v -1 25 12
v -1 26 12
v 0 26 12
v 0 31 12
v 5 25 12
v 5 31 12
v -19 30 10
v -19 39 10
v -14 30 10
v -14 32 10
v -7 32 10
v -7 33 10
v -1 33 10
v -1 39 10
v -25 30 8
v -25 36 8
v -21 30 8
v -19 30 8
v -19 36 8
v -1 31 7
v -1 33 7
v 5 31 7
v 5 33 7
v -25 27 5
v -25 30 5
v -19 27 5
v -19 30 5
v -1 24 5
v -1 27 5
v 5 24 5
v 5 27 5
v -19 39 4
v -19 45 4
v -13 39 4
v -13 45 4
v -25 36 3
v -25 40 3
v -19 36 3
v -19 40 3
v -18 20 3
v -18 26 3
v -13 39 3
v -13 45 3
v -12 1 3
v -12 20 3
v -12 26 3
v -12 27 3
v -7 1 3
v -7 19 3
v -7 25 3
v -7 27 3
v -7 39 3
v -7 45 3
v -1 19 3
v -1 24 3
v -1 25 3
v -25 26 -0
v -25 27 -0
v -19 26 -0
v -19 27 -0
v -1 30 -1
v -1 32 -1
v 5 30 -1
v 5 32 -1
v -7 25 -2
v -7 27 -2
v -7 39 -2
v -7 45 -2
v -6 25 -2
v -6 27 -2
v -6 41 -2
v -6 45 -2
v -1 39 -2
v -1 41 -2
v -16 26 -3
v -16 27 -3
v -12 26 -3
v -12 27 -3
v -6 24 -8
v -6 27 -8
v -3 24 -8
v -3 27 -8
v -1 27 -8
v -1 33 -8
v 1 27 -8
v 1 33 -8
v -7 26 10
v -7 27 10
v -1 26 10
v -1 27 10
v -1 31 10
v -1 33 10
v 0 31 10
v 0 33 10
v -14 25 7
v -14 27 7
v -7 25 7
v -7 27 7
v -21 23 6
v -21 30 6
v -19 27 6
v -19 30 6
v -14 23 6
v -14 27 6
v -1 25 6
v -1 27 6
v 5 25 6
v 5 27 6
v -25 33 2
v -25 34 2
v -19 33 2
v -19 34 2
v -1 30 1
v -1 33 1
v 5 30 1
v 5 33 1
v -25 32 -1
v -25 33 -1
v -19 32 -1
v -19 33 -1
v -1 24 -1
v -1 25 -1
v -1 26 -1
v 5 24 -1
v 5 26 -1
v -19 37 -2
v -19 40 -2
v -19 45 -2
v -13 37 -2
v -13 45 -2
v -12 1 -2
v -12 20 -2
v -12 21 -2
v -7 1 -2
v -7 19 -2
v -7 21 -2
v -25 34 -3
v -25 40 -3
v -19 34 -3
v -19 37 -3
v -19 40 -3
v -18 20 -3
v -18 26 -3
v -16 21 -3
v -16 26 -3
v -12 20 -3
v -12 21 -3
v -7 19 -3
v -7 21 -3
v -6 21 -3
v -6 25 -3
v -1 19 -3
v -1 25 -3
v -25 26 -6
v -25 32 -6
v -19 26 -6
v -19 27 -6
v -19 32 -6
v -1 26 -7
v -1 27 -7
v -1 32 -7
v 5 26 -7
v 5 32 -7
v -19 27 -8
v -19 37 -8
v -16 27 -8
v -13 37 -8
v -13 45 -8
v -10 21 -8
v -10 27 -8
v -9 24 -8
v -9 30 -8
v -6 21 -8
v -6 24 -8
v -6 41 -8
v -6 45 -8
v -5 30 -8
v -5 33 -8
v -1 33 -8
v -1 41 -8
v -16 21 -9
v -16 27 -9
v -10 21 -9
v -10 27 -9
v -9 24 -14
v -9 30 -14
v -5 30 -14
v -5 33 -14
v -3 24 -14
v -3 27 -14
v 1 27 -14
v 1 33 -14
v -12 1 3
v -7 1 3
v -12 1 -2
v -7 1 -2
v -7 19 3
v -1 19 3
v -7 19 -2
v -7 19 -3
v -1 19 -3
v -18 20 3
v -12 20 3
v -12 20 -2
v -18 20 -3
v -12 20 -3
v -12 21 -2
v -7 21 -2
v -16 21 -3
v -12 21 -3
v -7 21 -3
v -6 21 -3
v -10 21 -8
v -6 21 -8
v -16 21 -9
v -10 21 -9
v -21 23 13
v -14 23 13
v -21 23 6
v -14 23 6
v -1 24 5
v 5 24 5
v -1 24 3
v -1 24 -1
v 5 24 -1
v -9 24 -8
v -6 24 -8
v -3 24 -8
v -9 24 -14
v -3 24 -14
v -14 25 14
v -7 25 14
v -14 25 13
v -1 25 12
v 5 25 12
v -14 25 7
v -7 25 7
v -1 25 6
v 5 25 6
v -7 26 15
v 0 26 15
v -7 26 14
v -1 26 12
v 0 26 12
v -7 26 10
v -1 26 10
v -25 26 -0
v -19 26 -0
v -1 26 -1
v 5 26 -1
v -25 26 -6
v -19 26 -6
v -1 26 -7
v 5 26 -7
v -7 27 10
v -1 27 10
v -14 27 7
v -7 27 7
v -19 27 6
v -14 27 6
v -1 27 6
v 5 27 6
v -25 27 5
v -19 27 5
v -1 27 5
v 5 27 5
v -12 27 3
v -7 27 3
v -25 27 -0
v -19 27 -0
v -12 27 -2
v -7 27 -2
v -6 27 -2
v -16 27 -3
v -12 27 -3
v -19 27 -6
v -1 27 -7
v -19 27 -8
v -16 27 -8
v -6 27 -8
v -3 27 -8
v -1 27 -8
v 1 27 -8
v -3 27 -14
v 1 27 -14
v -25 30 8
v -21 30 8
v -21 30 6
v -19 30 6
v -25 30 5
v -19 30 5
v -25 34 2
v -19 34 2
v -25 34 -3
v -19 34 -3
v -7 25 3
v -1 25 3
v -1 25 -1
v -7 25 -2
v -6 25 -2
v -6 25 -3
v -1 25 -3
v -18 26 3
v -12 26 3
v -12 26 -2
v -18 26 -3
v -16 26 -3
v -12 26 -3
v -16 27 -8
v -10 27 -8
v -16 27 -9
v -10 27 -9
v -21 30 13
v -14 30 13
v -19 30 10
v -14 30 10
v -21 30 8
v -19 30 8
v -1 30 1
v 5 30 1
v -1 30 -1
v 5 30 -1
v -9 30 -8
v -5 30 -8
v -9 30 -14
v -5 30 -14
v 0 31 12
v 5 31 12
v -1 31 10
v 0 31 10
v -1 31 7
v 5 31 7
v -14 32 14
v -7 32 14
v -14 32 10
v -7 32 10
v -25 32 -1
v -19 32 -1
v -1 32 -1
v 5 32 -1
v -25 32 -6
v -19 32 -6
v -1 32 -7
v 5 32 -7
v -7 33 15
v 0 33 15
v -7 33 10
v -1 33 10
v 0 33 10
v -1 33 7
v 5 33 7
v -25 33 2
v -19 33 2
v -1 33 1
v 5 33 1
v -25 33 -1
v -19 33 -1
v -5 33 -8
v -1 33 -8
v 1 33 -8
v -5 33 -14
v 1 33 -14
v -25 36 8
v -19 36 8
v -25 36 3
v -19 36 3
v -19 37 -2
v -13 37 -2
v -19 37 -3
v -19 37 -8
v -13 37 -8
v -19 39 10
v -1 39 10
v -19 39 4
v -13 39 4
v -13 39 3
v -7 39 3
v -7 39 -2
v -1 39 -2
v -25 40 3
v -19 40 3
v -19 40 -2
v -25 40 -3
v -19 40 -3
v -6 41 -2
v -1 41 -2
v -6 41 -8
v -1 41 -8
v -19 45 4
v -13 45 4
v -13 45 3
v -7 45 3
v -19 45 -2
v -13 45 -2
v -7 45 -2
v -6 45 -2
v -13 45 -8
v -6 45 -8

# faces
f 4/2/1 2/2/1 1/2/1
f 6/2/1 4/2/1 3/2/1
f 7/2/1 2/2/1 4/2/1
f 7/2/1 6/2/1 5/2/1
f 7/2/1 4/2/1 6/2/1
f 8/2/1 2/2/1 7/2/1
f 9/2/1 7/2/1 5/2/1
f 10/2/1 7/2/1 9/2/1
f 11/2/1 9/2/1 5/2/1
f 13/2/1 11/2/1 5/2/1
f 13/2/1 12/2/1 11/2/1
f 14/2/1 12/2/1 13/2/1
f 15/2/1 12/2/1 14/2/1
f 16/2/1 12/2/1 15/2/1
f 19/2/1 18/2/1 17/2/1
f 20/2/1 18/2/1 19/2/1
f 21/2/1 18/2/1 20/2/1
f 28/2/1 23/2/1 22/2/1
f 29/2/1 23/2/1 28/2/1
f 31/2/1 25/2/1 24/2/1
f 33/2/1 31/2/1 30/2/1
f 34/2/1 33/2/1 32/2/1
f 35/2/1 31/2/1 33/2/1
f 35/2/1 33/2/1 34/2/1
f 36/2/1 27/2/1 26/2/1
f 38/2/1 31/2/1 35/2/1
f 39/2/1 25/2/1 31/2/1
f 39/2/1 31/2/1 38/2/1
f 40/2/1 37/2/1 36/2/1
f 40/2/1 36/2/1 26/2/1
f 41/2/1 37/2/1 40/2/1
f 42/2/1 37/2/1 41/2/1
f 44/2/1 42/2/1 41/2/1
f 44/2/1 43/2/1 42/2/1
f 45/2/1 43/2/1 44/2/1
f 48/2/1 47/2/1 46/2/1
f 49/2/1 47/2/1 48/2/1
f 52/2/1 51/2/1 50/2/1
f 53/2/1 51/2/1 52/2/1
f 54/2/1 51/2/1 53/2/1
f 55/2/1 51/2/1 54/2/1
f 58/2/1 57/2/1 56/2/1
f 60/2/1 58/2/1 56/2/1
f 60/2/1 59/2/1 58/2/1
f 61/2/1 59/2/1 60/2/1
f 64/2/1 63/2/1 62/2/1
f 65/2/1 63/2/1 64/2/1
f 68/1/1 67/1/1 66/1/1
f 69/1/1 67/1/1 68/1/1
f 73/1/1 71/1/1 70/1/1
f 74/2/1 72/2/1 71/2/1
f 74/1/1 71/1/1 73/1/1
f 75/2/1 72/2/1 74/2/1
f 78/2/1 77/2/1 76/2/1
f 79/2/1 77/2/1 78/2/1
f 82/2/1 81/2/1 80/2/1
f 83/2/1 81/2/1 82/2/1
f 86/2/1 85/2/1 84/2/1
f 88/2/1 86/2/1 84/2/1
f 88/2/1 87/2/1 86/2/1
f 89/2/1 87/2/1 88/2/1
f 92/2/1 91/2/1 90/2/1
f 93/2/1 91/2/1 92/2/1
f 98/2/1 95/2/1 94/2/1
f 100/2/1 97/2/1 96/2/1
f 101/2/1 97/2/1 100/2/1
f 102/2/1 99/2/1 98/2/1
f 104/2/1 97/2/1 101/2/1
f 105/2/1 97/2/1 104/2/1
f 106/2/1 103/2/1 102/2/1
f 106/2/1 98/2/1 94/2/1
f 106/2/1 102/2/1 98/2/1
f 107/2/1 103/2/1 106/2/1
f 108/2/2 109/2/2 110/2/2
f 110/2/2 109/2/2 111/2/2
f 112/2/2 113/2/2 114/2/2
f 114/2/2 113/2/2 115/2/2
f 116/2/2 117/2/2 118/2/2
f 118/2/2 117/2/2 119/2/2
f 119/2/2 117/2/2 120/2/2
f 120/2/2 117/2/2 121/2/2
f 122/2/2 123/2/2 124/2/2
f 124/2/2 123/2/2 125/2/2
f 126/2/2 127/2/2 128/2/2
f 128/2/2 127/2/2 129/2/2
f 130/2/2 131/2/2 132/2/2
f 132/2/2 131/2/2 133/2/2
f 134/1/2 135/1/2 136/1/2
f 136/1/2 135/1/2 137/1/2
f 138/2/2 139/2/2 142/2/2
f 142/2/2 139/2/2 143/2/2
f 143/2/2 139/2/2 144/2/2
f 144/2/2 139/2/2 145/2/2
f 140/1/2 141/1/2 146/1/2
f 146/1/2 141/1/2 147/1/2
f 148/2/2 149/2/2 150/2/2
f 150/2/2 149/2/2 151/2/2
f 152/2/2 153/2/2 154/2/2
f 152/2/2 154/2/2 156/2/2
f 155/2/2 156/2/2 157/2/2
f 156/2/2 154/2/2 158/2/2
f 157/2/2 156/2/2 158/2/2
f 159/2/2 160/2/2 161/2/2
f 161/2/2 160/2/2 162/2/2
f 163/2/2 164/2/2 165/2/2
f 165/2/2 164/2/2 166/2/2
f 167/2/2 168/2/2 169/2/2
f 169/2/2 168/2/2 170/2/2
f 170/2/2 168/2/2 171/2/2
f 171/2/2 168/2/2 172/2/2
f 175/2/2 176/2/2 179/2/2
f 173/2/2 174/2/2 180/2/2
f 177/2/2 178/2/2 181/2/2
f 181/2/2 178/2/2 182/2/2
f 175/2/2 179/2/2 183/2/2
f 179/2/2 180/2/2 183/2/2
f 180/2/2 174/2/2 184/2/2
f 183/2/2 180/2/2 184/2/2
f 181/2/2 182/2/2 185/2/2
f 182/2/2 183/2/2 185/2/2
f 183/2/2 184/2/2 185/2/2
f 185/2/2 184/2/2 186/2/2
f 186/2/2 184/2/2 187/2/2
f 187/2/2 184/2/2 188/2/2
f 189/2/2 190/2/2 191/2/2
f 189/2/2 191/2/2 193/2/2
f 191/2/2 192/2/2 193/2/2
f 193/2/2 192/2/2 194/2/2
f 195/2/2 196/2/2 197/2/2
f 197/2/2 196/2/2 198/2/2
f 199/2/2 200/2/2 203/2/2
f 201/2/2 202/2/2 205/2/2
f 203/2/2 204/2/2 206/2/2
f 199/2/2 203/2/2 206/2/2
f 206/2/2 204/2/2 207/2/2
f 205/2/2 206/2/2 207/2/2
f 207/2/2 204/2/2 208/2/2
f 201/2/2 205/2/2 209/2/2
f 205/2/2 207/2/2 209/2/2
f 209/2/2 207/2/2 210/2/2
f 208/2/2 204/2/2 211/2/2
f 211/2/2 204/2/2 212/2/2
f 210/2/2 207/2/2 213/2/2
f 213/2/2 207/2/2 214/2/2
f 217/2/3 216/2/3 215/2/3
f 218/2/3 216/2/3 217/2/3
f 221/2/3 220/2/3 219/2/3
f 222/2/3 220/2/3 221/2/3
f 223/2/3 220/2/3 222/2/3
f 226/2/3 225/2/3 224/2/3
f 227/2/3 225/2/3 226/2/3
f 228/2/3 225/2/3 227/2/3
f 231/2/3 230/2/3 229/2/3
f 233/2/3 231/2/3 229/2/3
f 233/2/3 232/2/3 231/2/3
f 234/2/3 232/2/3 233/2/3
f 237/2/3 236/2/3 235/2/3
f 238/2/3 236/2/3 237/2/3
f 239/2/3 236/2/3 238/2/3
f 240/2/3 236/2/3 239/2/3
f 241/2/3 236/2/3 240/2/3
f 242/2/3 236/2/3 241/2/3
f 245/2/3 244/2/3 243/2/3
f 246/2/3 244/2/3 245/2/3
f 247/2/3 244/2/3 246/2/3
f 250/2/3 249/2/3 248/2/3
f 251/2/3 249/2/3 250/2/3
f 254/2/3 253/2/3 252/2/3
f 255/2/3 253/2/3 254/2/3
f 258/2/3 257/2/3 256/2/3
f 259/2/3 257/2/3 258/2/3
f 262/2/3 261/2/3 260/2/3
f 263/2/3 261/2/3 262/2/3
f 266/2/3 265/2/3 264/2/3
f 267/2/3 265/2/3 266/2/3
f 273/2/3 269/2/3 268/2/3
f 274/2/3 269/2/3 273/2/3
f 276/1/3 273/1/3 272/1/3
f 276/1/3 275/1/3 274/1/3
f 276/1/3 274/1/3 273/1/3
f 277/1/3 275/1/3 276/1/3
f 278/1/3 275/1/3 277/1/3
f 279/1/3 275/1/3 278/1/3
f 280/2/3 271/2/3 270/2/3
f 281/2/3 271/2/3 280/2/3
f 282/2/3 278/2/3 277/2/3
f 283/2/3 278/2/3 282/2/3
f 284/2/3 278/2/3 283/2/3
f 287/2/3 286/2/3 285/2/3
f 288/2/3 286/2/3 287/2/3
f 291/2/3 290/2/3 289/2/3
f 292/2/3 290/2/3 291/2/3
f 297/2/3 294/2/3 293/2/3
f 298/2/3 294/2/3 297/2/3
f 299/2/3 296/2/3 295/2/3
f 300/2/3 296/2/3 299/2/3
f 301/2/3 299/2/3 295/2/3
f 302/2/3 299/2/3 301/2/3
f 305/2/3 304/2/3 303/2/3
f 306/2/3 304/2/3 305/2/3
f 309/2/3 308/2/3 307/2/3
f 310/2/3 308/2/3 309/2/3
f 313/2/3 312/2/3 311/2/3
f 314/2/3 312/2/3 313/2/3
f 315/2/4 316/2/4 317/2/4
f 317/2/4 316/2/4 318/2/4
f 319/2/4 320/2/4 321/2/4
f 321/2/4 320/2/4 322/2/4
f 323/2/4 324/2/4 325/2/4
f 325/2/4 324/2/4 326/2/4
f 327/2/4 328/2/4 329/2/4
f 329/2/4 328/2/4 330/2/4
f 327/2/4 329/2/4 331/2/4
f 331/2/4 329/2/4 332/2/4
f 333/2/4 334/2/4 335/2/4
f 335/2/4 334/2/4 336/2/4
f 337/2/4 338/2/4 339/2/4
f 339/2/4 338/2/4 340/2/4
f 341/2/4 342/2/4 343/2/4
f 343/2/4 342/2/4 344/2/4
f 345/2/4 346/2/4 347/2/4
f 347/2/4 346/2/4 348/2/4
f 349/2/4 350/2/4 352/2/4
f 350/2/4 351/2/4 352/2/4
f 352/2/4 351/2/4 353/2/4
f 354/2/4 355/2/4 357/2/4
f 355/2/4 356/2/4 357/2/4
f 357/2/4 356/2/4 358/2/4
f 359/1/4 360/1/4 362/1/4
f 360/1/4 361/1/4 362/1/4
f 362/1/4 361/1/4 363/1/4
f 363/1/4 361/1/4 364/1/4
f 365/2/4 366/2/4 367/2/4
f 367/2/4 366/2/4 368/2/4
f 368/2/4 366/2/4 369/2/4
f 370/2/4 371/2/4 372/2/4
f 372/2/4 371/2/4 373/2/4
f 370/2/4 372/2/4 374/2/4
f 374/2/4 372/2/4 375/2/4
f 376/2/4 377/2/4 378/2/4
f 376/2/4 378/2/4 380/2/4
f 378/2/4 379/2/4 380/2/4
f 380/2/4 379/2/4 381/2/4
f 382/2/4 383/2/4 384/2/4
f 384/2/4 383/2/4 385/2/4
f 385/2/4 383/2/4 386/2/4
f 387/2/4 388/2/4 390/2/4
f 388/2/4 389/2/4 390/2/4
f 390/2/4 389/2/4 391/2/4
f 392/2/4 393/2/4 394/2/4
f 394/2/4 393/2/4 395/2/4
f 394/2/4 395/2/4 398/2/4
f 395/2/4 396/2/4 398/2/4
f 397/2/4 398/2/4 399/2/4
f 398/2/4 396/2/4 400/2/4
f 399/2/4 398/2/4 400/2/4
f 397/2/4 399/2/4 401/2/4
f 401/2/4 399/2/4 402/2/4
f 400/2/4 396/2/4 403/2/4
f 403/2/4 396/2/4 404/2/4
f 400/2/4 403/2/4 405/2/4
f 405/2/4 403/2/4 406/2/4
f 406/2/4 403/2/4 407/2/4
f 407/2/4 403/2/4 408/2/4
f 409/2/4 410/2/4 411/2/4
f 411/2/4 410/2/4 412/2/4
f 413/2/4 414/2/4 415/2/4
f 413/2/4 415/2/4 417/2/4
f 415/2/4 416/2/4 417/2/4
f 417/2/4 416/2/4 418/2/4
f 418/2/4 416/2/4 419/2/4
f 419/2/4 416/2/4 420/2/4
f 423/1/5 422/1/5 421/1/5
f 424/1/5 422/1/5 423/1/5
f 427/2/5 426/2/5 425/2/5
f 428/2/5 426/2/5 427/2/5
f 429/2/5 426/2/5 428/2/5
f 432/2/5 431/2/5 430/2/5
f 433/2/5 432/2/5 430/2/5
f 434/2/5 432/2/5 433/2/5
f 438/2/5 436/2/5 435/2/5
f 439/2/5 436/2/5 438/2/5
f 441/2/5 438/2/5 437/2/5
f 441/2/5 440/2/5 439/2/5
f 441/2/5 439/2/5 438/2/5
f 442/2/5 440/2/5 441/2/5
f 443/2/5 441/2/5 437/2/5
f 444/2/5 441/2/5 443/2/5
f 447/2/5 446/2/5 445/2/5
f 448/2/5 446/2/5 447/2/5
f 451/2/5 450/2/5 449/2/5
f 452/2/5 450/2/5 451/2/5
f 453/2/5 450/2/5 452/2/5
f 457/2/5 455/2/5 454/2/5
f 457/2/5 456/2/5 455/2/5
f 458/2/5 456/2/5 457/2/5
f 461/2/5 460/2/5 459/2/5
f 464/2/5 460/2/5 461/2/5
f 465/2/5 460/2/5 464/2/5
f 466/2/5 463/2/5 462/2/5
f 467/2/5 463/2/5 466/2/5
f 470/2/5 469/2/5 468/2/5
f 471/2/5 469/2/5 470/2/5
f 472/2/5 469/2/5 471/2/5
f 473/2/5 471/2/5 470/2/5
f 474/2/5 471/2/5 473/2/5
f 479/2/5 476/2/5 475/2/5
f 480/2/5 476/2/5 479/2/5
f 481/2/5 478/2/5 477/2/5
f 482/2/5 478/2/5 481/2/5
f 486/2/5 484/2/5 483/2/5
f 488/2/5 486/2/5 485/2/5
f 489/2/5 484/2/5 486/2/5
f 489/2/5 486/2/5 488/2/5
f 492/2/5 488/2/5 487/2/5
f 492/2/5 490/2/5 489/2/5
f 492/2/5 489/2/5 488/2/5
f 493/2/5 490/2/5 492/2/5
f 494/2/5 490/2/5 493/2/5
f 495/2/5 492/2/5 491/2/5
f 495/2/5 493/2/5 492/2/5
f 496/2/5 493/2/5 495/2/5
f 497/2/5 495/2/5 491/2/5
f 498/2/5 495/2/5 497/2/5
f 499/2/5 495/2/5 498/2/5
f 500/2/5 493/2/5 496/2/5
f 501/2/5 493/2/5 500/2/5
f 502/2/5 499/2/5 498/2/5
f 503/2/5 499/2/5 502/2/5
f 504/2/5 502/2/5 498/2/5
f 505/2/5 493/2/5 501/2/5
f 506/2/5 502/2/5 504/2/5
f 507/2/5 502/2/5 506/2/5
f 508/2/5 505/2/5 501/2/5
f 509/2/5 505/2/5 508/2/5
f 510/2/5 505/2/5 509/2/5
f 512/2/5 510/2/5 509/2/5
f 512/2/5 511/2/5 510/2/5
f 513/2/5 511/2/5 512/2/5
f 516/2/5 515/2/5 514/2/5
f 518/2/5 516/2/5 514/2/5
f 518/2/5 517/2/5 516/2/5
f 519/2/5 517/2/5 518/2/5
f 522/2/5 521/2/5 520/2/5
f 523/2/5 521/2/5 522/2/5
f 524/2/6 525/2/6 526/2/6
f 524/2/6 526/2/6 527/2/6
f 527/2/6 526/2/6 528/2/6
f 528/2/6 526/2/6 529/2/6
f 529/2/6 526/2/6 530/2/6
f 531/2/6 532/2/6 533/2/6
f 531/2/6 533/2/6 534/2/6
f 534/2/6 533/2/6 535/2/6
f 535/2/6 533/2/6 536/2/6
f 537/2/6 538/2/6 539/2/6
f 539/2/6 538/2/6 540/2/6
f 541/2/6 542/2/6 543/2/6
f 543/2/6 542/2/6 544/2/6
f 541/2/6 543/2/6 545/2/6
f 545/2/6 543/2/6 546/2/6
f 547/2/6 548/2/6 549/2/6
f 549/2/6 548/2/6 550/2/6
f 551/2/6 552/2/6 553/2/6
f 553/2/6 552/2/6 554/2/6
f 555/2/6 556/2/6 558/2/6
f 557/2/6 558/2/6 559/2/6
f 558/2/6 556/2/6 560/2/6
f 559/2/6 558/2/6 560/2/6
f 561/2/6 562/2/6 563/2/6
f 563/2/6 562/2/6 564/2/6
f 565/2/6 566/2/6 569/2/6
f 569/2/6 566/2/6 570/2/6
f 567/2/6 568/2/6 571/2/6
f 571/2/6 568/2/6 572/2/6
f 573/2/6 574/2/6 575/2/6
f 575/2/6 574/2/6 576/2/6
f 576/2/6 574/2/6 577/2/6
f 578/2/6 579/2/6 582/2/6
f 582/2/6 579/2/6 583/2/6
f 580/2/6 581/2/6 584/2/6
f 584/2/6 581/2/6 585/2/6
f 586/2/6 587/2/6 589/2/6
f 587/2/6 588/2/6 589/2/6
f 589/2/6 588/2/6 590/2/6
f 591/2/6 592/2/6 593/2/6
f 593/2/6 592/2/6 594/2/6
f 595/2/6 596/2/6 597/2/6
f 597/2/6 596/2/6 598/2/6
f 598/2/6 596/2/6 599/2/6
f 600/2/6 601/2/6 602/2/6
f 602/2/6 601/2/6 603/2/6
f 603/2/6 601/2/6 604/2/6
f 604/2/6 601/2/6 605/2/6
f 605/2/6 601/2/6 606/2/6
f 606/2/6 601/2/6 607/2/6
f 608/2/6 609/2/6 610/2/6
f 608/2/6 610/2/6 611/2/6
f 611/2/6 610/2/6 612/2/6
f 613/2/6 614/2/6 615/2/6
f 615/2/6 614/2/6 616/2/6
f 617/2/6 618/2/6 619/2/6
f 617/2/6 619/2/6 621/2/6
f 619/2/6 620/2/6 621/2/6
f 621/2/6 620/2/6 622/2/6
f 622/2/6 620/2/6 623/2/6
f 623/2/6 624/2/6 625/2/6
f 622/2/6 623/2/6 625/2/6
f 625/2/6 624/2/6 626/2/6
